<svg width="50" height="50" viewBox="0 0 50 50" fill="none" xmlns="http://www.w3.org/2000/svg">
<g clip-path="url(#clip0_430_941)">
<path d="M19.0919 31.955C18.1394 30.86 16.4796 30.7445 15.3846 31.6969C16.4796 30.7444 16.5951 29.0846 15.6427 27.9896C14.6902 26.8946 13.0304 26.7791 11.9354 27.7315C13.0304 26.779 13.1459 25.1192 12.1935 24.0242C11.241 22.9292 9.58125 22.8137 8.48624 23.7661L4.74087 27.0239C3.64584 27.9764 3.53033 29.6362 4.48275 30.7312C5.43524 31.8262 7.09503 31.9417 8.19003 30.9893C7.09501 31.9418 6.9795 33.6016 7.93191 34.6966C8.8844 35.7916 10.5442 35.9071 11.6392 34.9547C10.5442 35.9072 10.4287 37.567 11.3811 38.662C12.3335 39.757 13.9934 39.8725 15.0884 38.9201L18.8337 35.6623C19.9288 34.7098 20.0443 33.05 19.0919 31.955Z" fill="#EBBF5A"/>
<path d="M38.241 30.0035L38.186 29.9399L27.7419 17.8481L24.7935 20.3668C23.4706 21.5116 21.678 21.905 19.9955 21.419C19.0433 21.1439 18.1954 20.6024 17.5435 19.8528C15.6813 17.7119 15.908 14.4552 18.0459 12.5955L19.8296 11.0392L15.8099 8.75191L5.59325 20.1155L6.77239 21.9195L6.83377 21.8661C8.15774 20.7145 9.95521 20.318 11.6419 20.8054C12.594 21.0805 13.4419 21.6221 14.0937 22.3714C14.7108 23.0809 15.1137 23.9259 15.2761 24.828C16.153 25.1174 16.9336 25.6364 17.5428 26.3368C18.16 27.0463 18.5629 27.8913 18.7252 28.7933C19.6022 29.0827 20.3827 29.6016 20.992 30.3022C22.8542 32.4431 22.6275 35.6999 20.4865 37.5621L18.5007 39.2894L20.2184 41.3118C21.1708 42.4068 22.8306 42.5223 23.9256 41.5699C25.0207 40.6174 25.1362 38.9576 24.1838 37.8626L24.8822 38.6657C25.8347 39.7607 27.4945 39.8762 28.5895 38.9238C29.6845 37.9713 29.8 36.3116 28.8477 35.2166L29.5461 36.0196C30.4986 37.1146 32.1584 37.2301 33.2534 36.2777C34.3483 35.3252 34.464 33.6657 33.5117 32.5707L34.21 33.3734C35.1625 34.4685 36.8223 34.584 37.9173 33.6316C38.9865 32.7017 39.1214 31.098 38.241 30.0035Z" fill="#EBBF5A"/>
<path d="M45.6762 12.8417L27.035 8.09392L19.7015 14.4928C18.6064 15.4453 18.4909 17.1051 19.4433 18.2001C20.3958 19.2951 22.0556 19.4106 23.1506 18.4582L28.0104 14.3067L28.6109 15.0019L39.435 27.5337L45.7662 25.1782L45.6762 12.8417Z" fill="#EBBF5A"/>
</g>
<defs>
<clipPath id="clip0_430_941">
<rect width="40" height="40" fill="white" transform="translate(11.3364 0.234924) rotate(16.1134)"/>
</clipPath>
</defs>
</svg>
