<svg width="46" height="46" viewBox="0 0 46 46" fill="none" xmlns="http://www.w3.org/2000/svg">
<path fill-rule="evenodd" clip-rule="evenodd" d="M12.7075 42.3158C13.7563 42.8271 15.0074 43.4282 17.3071 43.4051C19.6067 43.382 20.8456 42.756 21.884 42.2238L21.9136 42.2085C22.7263 41.7919 23.3553 41.4694 24.7879 41.455C27.1074 41.4317 28.4898 42.2827 28.9513 42.6223C29.6697 43.151 30.5116 43.0974 31.0905 42.8225C31.6769 42.5441 32.2926 41.8878 32.283 40.9269L32.0806 20.7557L37.7053 20.6992C40.8105 20.6681 43.3047 18.1276 43.2736 15.0199L43.2171 9.39335C43.1997 7.65906 42.7465 6.23816 41.9803 5.11348C41.2221 4.00053 40.2322 3.28687 39.3021 2.83343C38.3793 2.38348 37.4817 2.17235 36.8303 2.07051C36.4393 2.00936 36.0389 1.96426 35.6422 1.96899L9.39353 2.23242C7.65928 2.24982 6.23834 2.70304 5.1137 3.46924C4.00073 4.22745 3.28703 5.21735 2.83355 6.14744C2.3837 7.07019 2.17248 7.96786 2.07065 8.61898C2.01904 8.94914 1.99366 9.22803 1.98115 9.43179C1.97074 9.60159 1.96817 9.70212 1.96917 9.8073L2.2845 41.228C2.29414 42.1888 2.92284 42.8327 3.51471 43.0993C4.09904 43.3625 4.94194 43.3992 5.64956 42.8562C6.10414 42.5074 7.4692 41.6288 9.78867 41.6056C11.2214 41.5912 11.8566 41.9009 12.6774 42.3012L12.7075 42.3158ZM5.7252 9.76961L6.00718 38.4863C7.01654 38.1348 8.26484 37.8707 9.75104 37.8558C12.0507 37.8327 13.3019 38.4337 14.3507 38.945L14.3807 38.9596C15.2015 39.3599 15.8368 39.6696 17.2695 39.6553C18.7022 39.6409 19.3311 39.3184 20.1437 38.9018L20.1734 38.8866C21.2117 38.3544 22.4505 37.7284 24.7503 37.7052C26.2365 37.6903 27.4898 37.9292 28.506 38.2604L28.2178 9.54388C28.2031 8.07582 28.5052 6.82585 29.0492 5.78534L9.43116 5.98223C8.35305 5.99305 7.67177 6.26408 7.22505 6.56839C6.76665 6.8807 6.43983 7.30756 6.20433 7.7907C5.9652 8.28119 5.83899 8.79323 5.77563 9.19833C5.74585 9.38895 5.72853 9.57756 5.7252 9.76961ZM36.2512 5.77551C36.6563 5.83876 37.1683 5.96506 37.6588 6.20409C38.1419 6.43963 38.5688 6.76648 38.8811 7.22481C39.1854 7.67159 39.4565 8.35291 39.4673 9.43098L39.5237 15.0576C39.5341 16.0918 38.7043 16.939 37.6676 16.9494L32.0429 17.0059L31.9677 9.50624C31.9568 8.42817 32.2141 7.74155 32.5094 7.28875C32.8125 6.82425 33.2327 6.48889 33.711 6.24371C34.1966 5.99489 34.706 5.85833 35.1099 5.78696C35.3074 5.75198 35.4679 5.73461 35.5717 5.72607C35.7977 5.70768 36.0283 5.74062 36.2512 5.77551Z" fill="#EBBF5A"/>
<path d="M9.67576 30.356C9.68616 31.3915 10.534 32.2225 11.5695 32.2121L22.8189 32.0992C23.8544 32.0888 24.6854 31.2409 24.675 30.2055C24.6646 29.17 23.8168 28.339 22.7813 28.3494L11.5319 28.4623C10.4964 28.4727 9.66537 29.3205 9.67576 30.356Z" fill="#EBBF5A"/>
<path d="M9.60032 22.8564C9.61072 23.8919 10.4586 24.7229 11.494 24.7125L22.7435 24.5996C23.779 24.5892 24.61 23.7414 24.5996 22.7059C24.5892 21.6703 23.7414 20.8394 22.7058 20.8498L11.4564 20.9627C10.4209 20.9731 9.58993 21.8209 9.60032 22.8564Z" fill="#EBBF5A"/>
<path d="M9.52513 15.3568C9.53552 16.3923 10.3834 17.2232 11.4189 17.2128L22.6683 17.0999C23.7038 17.0896 24.5348 16.2417 24.5244 15.2062C24.514 14.1707 23.6662 13.3397 22.6307 13.3501L11.3812 13.463C10.3457 13.4734 9.51474 14.3212 9.52513 15.3568Z" fill="#EBBF5A"/>
</svg>
