<?xml version="1.0" encoding="utf-8"?>
<svg fill="none" viewBox="0 0 400 476" xmlns="http://www.w3.org/2000/svg">
    <path style="paint-order: stroke; fill: rgb(255, 255, 255); fill-opacity: 0.9;"
        clip-rule="evenodd"
        d="M6 0C2.68629 0 0 2.68631 0 6.00001V65.9138C4.11492 67.6652 7 71.7457 7 76.5C7 81.2543 4.11492 85.3348 0 87.0862V470C0 473.314 2.68629 476 5.99999 476H16.0881C17.9841 471.869 22.157 469 27 469C31.843 469 36.0159 471.869 37.9119 476H50.0881C51.9841 471.869 56.157 469 61 469C65.843 469 70.0159 471.869 71.9119 476H84.0881C85.9841 471.869 90.157 469 95 469C99.843 469 104.016 471.869 105.912 476H119.088C120.984 471.869 125.157 469 130 469C134.843 469 139.016 471.869 140.912 476H153.088C154.984 471.869 159.157 469 164 469C168.843 469 173.016 471.869 174.912 476H187.088C188.984 471.869 193.157 469 198 469C202.843 469 207.016 471.869 208.912 476H221.088C222.984 471.869 227.157 469 232 469C236.843 469 241.016 471.869 242.912 476H255.088C256.984 471.869 261.157 469 266 469C270.843 469 275.016 471.869 276.912 476H289.088C290.984 471.869 295.157 469 300 469C304.843 469 309.016 471.869 310.912 476H323.088C324.984 471.869 329.157 469 334 469C338.843 469 343.016 471.869 344.912 476H357.088C358.984 471.869 363.157 469 368 469C372.843 469 377.016 471.869 378.912 476H394C397.314 476 400 473.314 400 470V87.4577C395.36 85.9769 392 81.6309 392 76.5C392 71.3691 395.36 67.0231 400 65.5423V6C400 2.68629 397.314 0 394 0H6Z"
        fill-rule="evenodd"
        transform="matrix(0.9999999999999999, 0, 0, 0.9999999999999999, 0, -3.552713678800501e-15)" />
    <rect fill="#FFFDFB" height="60" stroke="#EBBF5A" stroke-dasharray="2 2" stroke-width="2"
        transform="matrix(0.9999999999999999, 0, 0, 0.9999999999999999, 0, -3.552713678800501e-15)"
        width="367" x="15" y="371" />
    <path
        d="M20.6676 75.8757V76.7706H16.1293V75.8757H20.6676ZM27.4645 75.8757V76.7706H22.9261V75.8757H27.4645ZM34.2614 75.8757V76.7706H29.723V75.8757H34.2614ZM41.0582 75.8757V76.7706H36.5199V75.8757H41.0582ZM47.8551 75.8757V76.7706H43.3168V75.8757H47.8551ZM54.652 75.8757V76.7706H50.1136V75.8757H54.652ZM61.4489 75.8757V76.7706H56.9105V75.8757H61.4489ZM68.2457 75.8757V76.7706H63.7074V75.8757H68.2457ZM75.0426 75.8757V76.7706H70.5043V75.8757H75.0426ZM81.8395 75.8757V76.7706H77.3011V75.8757H81.8395ZM88.6364 75.8757V76.7706H84.098V75.8757H88.6364ZM95.4332 75.8757V76.7706H90.8949V75.8757H95.4332ZM102.23 75.8757V76.7706H97.6918V75.8757H102.23ZM109.027 75.8757V76.7706H104.489V75.8757H109.027ZM115.824 75.8757V76.7706H111.286V75.8757H115.824ZM122.621 75.8757V76.7706H118.082V75.8757H122.621ZM129.418 75.8757V76.7706H124.879V75.8757H129.418ZM136.214 75.8757V76.7706H131.676V75.8757H136.214ZM143.011 75.8757V76.7706H138.473V75.8757H143.011ZM149.808 75.8757V76.7706H145.27V75.8757H149.808ZM156.605 75.8757V76.7706H152.067V75.8757H156.605ZM163.402 75.8757V76.7706H158.864V75.8757H163.402ZM170.199 75.8757V76.7706H165.661V75.8757H170.199ZM176.996 75.8757V76.7706H172.457V75.8757H176.996ZM183.793 75.8757V76.7706H179.254V75.8757H183.793ZM190.589 75.8757V76.7706H186.051V75.8757H190.589ZM197.386 75.8757V76.7706H192.848V75.8757H197.386ZM204.183 75.8757V76.7706H199.645V75.8757H204.183ZM210.98 75.8757V76.7706H206.442V75.8757H210.98ZM217.777 75.8757V76.7706H213.239V75.8757H217.777ZM224.574 75.8757V76.7706H220.036V75.8757H224.574ZM231.371 75.8757V76.7706H226.832V75.8757H231.371ZM238.168 75.8757V76.7706H233.629V75.8757H238.168ZM244.964 75.8757V76.7706H240.426V75.8757H244.964ZM251.761 75.8757V76.7706H247.223V75.8757H251.761ZM258.558 75.8757V76.7706H254.02V75.8757H258.558ZM265.355 75.8757V76.7706H260.817V75.8757H265.355ZM272.152 75.8757V76.7706H267.614V75.8757H272.152ZM278.949 75.8757V76.7706H274.411V75.8757H278.949ZM285.746 75.8757V76.7706H281.207V75.8757H285.746ZM292.543 75.8757V76.7706H288.004V75.8757H292.543ZM299.339 75.8757V76.7706H294.801V75.8757H299.339ZM306.136 75.8757V76.7706H301.598V75.8757H306.136ZM312.933 75.8757V76.7706H308.395V75.8757H312.933ZM319.73 75.8757V76.7706H315.192V75.8757H319.73ZM326.527 75.8757V76.7706H321.989V75.8757H326.527ZM333.324 75.8757V76.7706H328.786V75.8757H333.324ZM340.121 75.8757V76.7706H335.582V75.8757H340.121ZM346.918 75.8757V76.7706H342.379V75.8757H346.918ZM353.714 75.8757V76.7706H349.176V75.8757H353.714ZM360.511 75.8757V76.7706H355.973V75.8757H360.511ZM367.308 75.8757V76.7706H362.77V75.8757H367.308ZM374.105 75.8757V76.7706H369.567V75.8757H374.105ZM380.902 75.8757V76.7706H376.364V75.8757H380.902Z"
        fill="#BFBFBF"
        transform="matrix(0.9999999999999999, 0, 0, 0.9999999999999999, 0, -3.552713678800501e-15)" />
    <path
        d="M15.6676 305.876V306.771H11.1293V305.876H15.6676ZM22.4645 305.876V306.771H17.9261V305.876H22.4645ZM29.2614 305.876V306.771H24.723V305.876H29.2614ZM36.0582 305.876V306.771H31.5199V305.876H36.0582ZM42.8551 305.876V306.771H38.3168V305.876H42.8551ZM49.652 305.876V306.771H45.1136V305.876H49.652ZM56.4489 305.876V306.771H51.9105V305.876H56.4489ZM63.2457 305.876V306.771H58.7074V305.876H63.2457ZM70.0426 305.876V306.771H65.5043V305.876H70.0426ZM76.8395 305.876V306.771H72.3011V305.876H76.8395ZM83.6364 305.876V306.771H79.098V305.876H83.6364ZM90.4332 305.876V306.771H85.8949V305.876H90.4332ZM97.2301 305.876V306.771H92.6918V305.876H97.2301ZM104.027 305.876V306.771H99.4886V305.876H104.027ZM110.824 305.876V306.771H106.286V305.876H110.824ZM117.621 305.876V306.771H113.082V305.876H117.621ZM124.418 305.876V306.771H119.879V305.876H124.418ZM131.214 305.876V306.771H126.676V305.876H131.214ZM138.011 305.876V306.771H133.473V305.876H138.011ZM144.808 305.876V306.771H140.27V305.876H144.808ZM151.605 305.876V306.771H147.067V305.876H151.605ZM158.402 305.876V306.771H153.864V305.876H158.402ZM165.199 305.876V306.771H160.661V305.876H165.199ZM171.996 305.876V306.771H167.457V305.876H171.996ZM178.793 305.876V306.771H174.254V305.876H178.793ZM185.589 305.876V306.771H181.051V305.876H185.589ZM192.386 305.876V306.771H187.848V305.876H192.386ZM199.183 305.876V306.771H194.645V305.876H199.183ZM205.98 305.876V306.771H201.442V305.876H205.98ZM212.777 305.876V306.771H208.239V305.876H212.777ZM219.574 305.876V306.771H215.036V305.876H219.574ZM226.371 305.876V306.771H221.832V305.876H226.371ZM233.168 305.876V306.771H228.629V305.876H233.168ZM239.964 305.876V306.771H235.426V305.876H239.964ZM246.761 305.876V306.771H242.223V305.876H246.761ZM253.558 305.876V306.771H249.02V305.876H253.558ZM260.355 305.876V306.771H255.817V305.876H260.355ZM267.152 305.876V306.771H262.614V305.876H267.152ZM273.949 305.876V306.771H269.411V305.876H273.949ZM280.746 305.876V306.771H276.207V305.876H280.746ZM287.543 305.876V306.771H283.004V305.876H287.543ZM294.339 305.876V306.771H289.801V305.876H294.339ZM301.136 305.876V306.771H296.598V305.876H301.136ZM307.933 305.876V306.771H303.395V305.876H307.933ZM314.73 305.876V306.771H310.192V305.876H314.73ZM321.527 305.876V306.771H316.989V305.876H321.527ZM328.324 305.876V306.771H323.786V305.876H328.324ZM335.121 305.876V306.771H330.582V305.876H335.121ZM341.918 305.876V306.771H337.379V305.876H341.918ZM348.714 305.876V306.771H344.176V305.876H348.714ZM355.511 305.876V306.771H350.973V305.876H355.511ZM362.308 305.876V306.771H357.77V305.876H362.308ZM369.105 305.876V306.771H364.567V305.876H369.105ZM375.902 305.876V306.771H371.364V305.876H375.902ZM382.699 305.876V306.771H378.161V305.876H382.699ZM389.496 305.876V306.771H384.957V305.876H389.496Z"
        fill="#BFBFBF"
        transform="matrix(0.9999999999999999, 0, 0, 0.9999999999999999, 0, -3.552713678800501e-15)" />
</svg>