<svg width="46" height="46" viewBox="0 0 46 46" fill="none" xmlns="http://www.w3.org/2000/svg">
<g filter="url(#filter0_d_430_939)">
<path d="M23 0C19.2422 0 15.5687 1.11433 12.4442 3.20208C9.31964 5.28982 6.88436 8.25722 5.4463 11.729C4.00823 15.2008 3.63197 19.0211 4.36509 22.7067C5.09821 26.3923 6.90778 29.7778 9.56498 32.435C12.2222 35.0922 15.6077 36.9018 19.2933 37.6349C22.9789 38.368 26.7992 37.9918 30.271 36.5537C33.7428 35.1156 36.7102 32.6804 38.7979 29.5558C40.8857 26.4313 42 22.7578 42 19C42 13.9609 39.9982 9.12816 36.435 5.56497C32.8718 2.00178 28.0391 0 23 0ZM30.7188 30.78H15.5663C15.1958 30.7792 14.8391 30.6399 14.5661 30.3895C14.2931 30.1392 14.1236 29.7958 14.0909 29.4268C14.0582 29.0578 14.1646 28.6899 14.3892 28.3954C14.6139 28.1009 14.9405 27.901 15.305 27.835C15.4831 27.835 17.3475 27.2531 17.3475 23.6312V20.1875H14.3788C14.0638 20.1875 13.7618 20.0624 13.5391 19.8397C13.3164 19.617 13.1913 19.3149 13.1913 19C13.1913 18.6851 13.3164 18.383 13.5391 18.1603C13.7618 17.9376 14.0638 17.8125 14.3788 17.8125H17.3475V11.7325C17.3238 10.8182 17.4809 9.90821 17.8098 9.05477C18.1387 8.20134 18.6329 7.42124 19.264 6.75925C19.895 6.09726 20.6507 5.56641 21.4874 5.19716C22.3242 4.8279 23.2256 4.62752 24.14 4.6075C25.0891 4.61463 26.0258 4.82376 26.8878 5.22097C27.7498 5.61819 28.5173 6.19439 29.1394 6.91125C29.2712 7.05706 29.3729 7.22739 29.4389 7.41253C29.5048 7.59767 29.5336 7.79398 29.5237 7.99026C29.5138 8.18654 29.4653 8.37894 29.381 8.55648C29.2967 8.73402 29.1783 8.89323 29.0325 9.025C28.8867 9.15677 28.7164 9.25854 28.5312 9.32448C28.3461 9.39042 28.1498 9.41926 27.9535 9.40933C27.7572 9.39941 27.5648 9.35092 27.3873 9.26664C27.2097 9.18236 27.0505 9.06393 26.9188 8.91812C26.582 8.5202 26.1641 8.19885 25.6931 7.97562C25.222 7.75238 24.7087 7.63241 24.1875 7.62375C23.1364 7.66397 22.1441 8.11883 21.4275 8.88882C20.7109 9.65881 20.3284 10.6813 20.3638 11.7325V17.8125H23.9263C24.2412 17.8125 24.5432 17.9376 24.7659 18.1603C24.9886 18.383 25.1138 18.6851 25.1138 19C25.1138 19.3149 24.9886 19.617 24.7659 19.8397C24.5432 20.0624 24.2412 20.1875 23.9263 20.1875H20.3638V23.6312C20.3924 25.0785 20.0749 26.5116 19.4375 27.8112H30.7188C31.1124 27.8112 31.49 27.9676 31.7684 28.246C32.0467 28.5244 32.2031 28.9019 32.2031 29.2956C32.2031 29.6893 32.0467 30.0669 31.7684 30.3452C31.49 30.6236 31.1124 30.78 30.7188 30.78Z" fill="#EBBF5A"/>
</g>
<defs>
<filter id="filter0_d_430_939" x="0" y="0" width="46" height="46" filterUnits="userSpaceOnUse" color-interpolation-filters="sRGB">
<feFlood flood-opacity="0" result="BackgroundImageFix"/>
<feColorMatrix in="SourceAlpha" type="matrix" values="0 0 0 0 0 0 0 0 0 0 0 0 0 0 0 0 0 0 127 0" result="hardAlpha"/>
<feOffset dy="4"/>
<feGaussianBlur stdDeviation="2"/>
<feComposite in2="hardAlpha" operator="out"/>
<feColorMatrix type="matrix" values="0 0 0 0 0 0 0 0 0 0 0 0 0 0 0 0 0 0 0.25 0"/>
<feBlend mode="normal" in2="BackgroundImageFix" result="effect1_dropShadow_430_939"/>
<feBlend mode="normal" in="SourceGraphic" in2="effect1_dropShadow_430_939" result="shape"/>
</filter>
</defs>
</svg>
