<svg width="46" height="42" viewBox="0 0 46 42" fill="none" xmlns="http://www.w3.org/2000/svg">
<g clip-path="url(#clip0_208_1226)">
<path fill-rule="evenodd" clip-rule="evenodd" d="M46 21.0152L32.8978 40L22.4609 33.5785L23.1535 32.1758L30.8014 36.8395L30.895 36.9004C31.0682 37.0047 31.2611 37.0752 31.4628 37.1078C31.6645 37.1404 31.8709 37.1345 32.0701 37.0905C32.2694 37.0466 32.4577 36.9653 32.6241 36.8514C32.7906 36.7375 32.9319 36.5933 33.04 36.4269L33.4631 35.7812H33.4855L35.4583 32.7067L44.4427 20.043L46.0187 21.0081L46 21.0152ZM12.4097 14.0843H9.05925L6.60726 5.49596H9.41862L9.66943 6.93094L10.7064 11.7094H10.8748L12.1476 7.07444L12.4097 5.49596H15.1274L12.4097 14.0843ZM22.9289 14.0843H20.1175L19.8667 12.6673V12.6242L18.5078 12.5991L17.3848 12.6529L17.1489 14.0879H14.4087L17.1265 5.49955H20.4956L22.9476 14.0879L22.9289 14.0843ZM19.4399 10.687L18.8298 7.89238H18.6613L17.8864 10.7049H18.6613H19.4399V10.687ZM29.4575 5.68251L29.3078 7.61973L27.4772 7.53363H27.3275L27.2563 11.2897L27.3687 14.0771H24.5985L24.737 11.5659L24.6509 7.53363H24.4712L22.6294 7.61256L22.4609 7.43318L22.6144 5.49596H29.3078L29.4575 5.68251ZM18.1896 29.8762L17.9688 29.6753L14.8617 32.7354C14.8453 32.7566 14.8278 32.777 14.8092 32.7964C14.722 32.88 14.6184 32.9464 14.5044 32.9916C14.3904 33.0369 14.2682 33.0602 14.1448 33.0602C14.0214 33.0602 13.8992 33.0369 13.7852 32.9916C13.6712 32.9464 13.5676 32.88 13.4803 32.7964L10.2235 29.6753L6.85433 32.739C6.6765 32.9001 6.4401 32.9884 6.19542 32.985C5.95073 32.9817 5.71706 32.887 5.54411 32.7211L2.3584 29.6287L1.69206 30.3462C1.57513 30.4962 1.41232 30.6075 1.22629 30.6647C1.04026 30.7219 0.840252 30.722 0.654105 30.6652C0.467957 30.6084 0.304924 30.4974 0.187689 30.3476C0.0704546 30.1978 0.00484875 30.0168 0 29.8296L0 0.900448C0 0.661635 0.098995 0.432602 0.275207 0.263735C0.451419 0.0948684 0.690414 0 0.939616 0L35.1401 0C35.2634 -9.44614e-07 35.3854 0.0233154 35.4991 0.068611C35.6129 0.113907 35.7163 0.18029 35.8032 0.263952C35.8902 0.347613 35.959 0.446906 36.0058 0.556133C36.0527 0.665359 36.0765 0.782369 36.076 0.900448V7.78117L35.6156 7.49776C35.4085 7.36918 35.1755 7.28359 34.9318 7.24652C34.6881 7.20945 34.439 7.22171 34.2005 7.28251V1.79372H1.87174V27.5157C2.03825 27.4316 2.22733 27.3976 2.41432 27.4181C2.60131 27.4385 2.77751 27.5126 2.91992 27.6305C2.93796 27.6442 2.95429 27.6598 2.96859 27.6771H2.99479L6.23665 30.852L9.60579 27.7919C9.7801 27.6278 10.0147 27.5359 10.259 27.5359C10.5034 27.5359 10.738 27.6278 10.9123 27.7919L14.1429 30.8879L17.2687 27.8027C17.4381 27.6337 17.6699 27.5353 17.9143 27.5286C18.1587 27.5218 18.396 27.6074 18.5752 27.7668L19.1667 28.2906L18.418 29.3453C18.308 29.5092 18.2282 29.69 18.1821 29.8798L18.1896 29.8762ZM22.5171 23.4188H7.16878C6.98511 23.4188 6.80896 23.3489 6.67908 23.2244C6.5492 23.1 6.47624 22.9312 6.47624 22.7552C6.47624 22.5791 6.5492 22.4103 6.67908 22.2859C6.80896 22.1614 6.98511 22.0915 7.16878 22.0915H23.4305L22.5171 23.4188ZM25.5643 19.0135H6.95915C6.77547 19.0135 6.59932 18.9435 6.46944 18.8191C6.33957 18.6946 6.2666 18.5258 6.2666 18.3498C6.2666 18.1738 6.33957 18.0049 6.46944 17.8805C6.59932 17.756 6.77547 17.6861 6.95915 17.6861H26.4777L25.5643 19.0135ZM44.7721 16.9184L31.6699 35.8744L21.2181 29.4673L34.3203 10.4825L44.7684 16.904L44.7721 16.9184ZM35.2188 22.0879C35.4973 22.5515 35.6261 23.0838 35.589 23.6175C35.5519 24.1513 35.3504 24.6625 35.0102 25.0865C34.6699 25.5105 34.2061 25.8284 33.6773 25.9998C33.1486 26.1713 32.5787 26.1886 32.0396 26.0497C31.5006 25.9108 31.0166 25.6218 30.6489 25.2193C30.2812 24.8169 30.0463 24.319 29.9739 23.7886C29.9015 23.2582 29.9948 22.7191 30.242 22.2395C30.4893 21.7599 30.8794 21.3613 31.363 21.0942C31.6841 20.9162 32.0387 20.8008 32.4064 20.7544C32.7742 20.7081 33.1479 20.7317 33.5061 20.824C33.8643 20.9164 34.2 21.0755 34.4939 21.2924C34.7878 21.5093 35.0341 21.7796 35.2188 22.0879ZM41.0286 19.1462L32.2427 31.6735C31.8324 31.4232 31.3353 31.3388 30.8603 31.439C30.3852 31.5392 29.971 31.8158 29.7083 32.2081L25.5905 29.6717C25.7204 29.4772 25.809 29.26 25.8512 29.0327C25.8935 28.8053 25.8885 28.5722 25.8367 28.3466C25.7849 28.1211 25.6873 27.9075 25.5493 27.7182C25.4114 27.5288 25.2358 27.3674 25.0327 27.243L33.8075 14.7085C34.0099 14.833 34.2361 14.9181 34.4729 14.9588C34.7097 14.9995 34.9526 14.9951 35.1876 14.9458C35.4226 14.8965 35.6452 14.8032 35.8426 14.6714C36.04 14.5396 36.2084 14.3718 36.3381 14.1776L40.4746 16.7139C40.3446 16.9082 40.2558 17.1252 40.2132 17.3524C40.1707 17.5797 40.1753 17.8127 40.2267 18.0382C40.2782 18.2637 40.3755 18.4774 40.5131 18.6668C40.6507 18.8563 40.8259 19.018 41.0286 19.1426V19.1462Z" fill="#EBBF5A"/>
</g>
<defs>
<clipPath id="clip0_208_1226">
<rect width="46" height="42" fill="white"/>
</clipPath>
</defs>
</svg>
