<svg width="62" height="62" viewBox="0 0 62 62" fill="none" xmlns="http://www.w3.org/2000/svg">
<circle cx="31" cy="31" r="31" fill="black" fill-opacity="0.4"/>
<path d="M41.0061 24.7497V22.2497H21.0061V39.7497H41.0061V37.2497H31.0061C30.3158 37.2497 29.7561 36.6901 29.7561 35.9997V25.9997C29.7561 25.3094 30.3158 24.7497 31.0061 24.7497H41.0061ZM19.7561 19.7497H42.2561C42.9465 19.7497 43.5061 20.3094 43.5061 20.9997V40.9997C43.5061 41.6901 42.9465 42.2497 42.2561 42.2497H19.7561C19.0658 42.2497 18.5061 41.6901 18.5061 40.9997V20.9997C18.5061 20.3094 19.0658 19.7497 19.7561 19.7497ZM32.2561 27.2497V34.7497H41.0061V27.2497H32.2561ZM34.7561 29.7497H38.5061V32.2497H34.7561V29.7497Z" fill="white"/>
</svg>
