<svg width="32" height="32" viewBox="0 0 32 32" fill="none" xmlns="http://www.w3.org/2000/svg">
<g id="Icon">
<path id="SF Symbol / house.fill" d="M20.1455 13.0239L22.8994 11.4565C22.7896 11.3467 22.6577 11.2588 22.4966 11.1709L17.3257 8.22656C16.8789 7.97021 16.4321 7.83105 16 7.83105C15.5605 7.83105 15.1138 7.97021 14.667 8.22656L13.1802 9.06885L20.1455 13.0239ZM16 15.375L19.1274 13.6025L12.1914 9.64014L9.50342 11.1709C9.34229 11.2588 9.21045 11.3467 9.09326 11.4565L16 15.375ZM16.498 23.7686C16.5493 23.7539 16.5933 23.7319 16.6445 23.7026L22.3794 20.436C23.0605 20.0479 23.4268 19.6523 23.4268 18.5903V12.8848C23.4268 12.665 23.4121 12.4893 23.3682 12.3281L16.498 16.2539V23.7686ZM15.4946 23.7686V16.2539L8.62451 12.3281C8.58057 12.4893 8.56592 12.665 8.56592 12.8848V18.5903C8.56592 19.6523 8.93945 20.0479 9.61328 20.436L15.3555 23.7026C15.3994 23.7319 15.4434 23.7539 15.4946 23.7686Z" fill="#B5992A"/>
</g>
</svg>
