<svg width="25" height="24" viewBox="0 0 25 24" fill="none" xmlns="http://www.w3.org/2000/svg">
<g id="Frame">
<path id="Vector" d="M22.8124 5.25V11.25C22.8124 11.3992 22.7531 11.5423 22.6476 11.6477C22.5421 11.7532 22.3991 11.8125 22.2499 11.8125C22.1007 11.8125 21.9576 11.7532 21.8521 11.6477C21.7466 11.5423 21.6874 11.3992 21.6874 11.25V6.6075L13.6474 14.6475C13.5419 14.7528 13.3989 14.812 13.2499 14.812C13.1008 14.812 12.9579 14.7528 12.8524 14.6475L9.49988 11.2959L3.14738 17.6475C3.04075 17.7469 2.89972 17.801 2.75399 17.7984C2.60827 17.7958 2.46923 17.7368 2.36617 17.6337C2.26311 17.5307 2.20407 17.3916 2.2015 17.2459C2.19893 17.1002 2.25302 16.9591 2.35238 16.8525L9.10239 10.1025C9.20785 9.99716 9.35082 9.93799 9.49988 9.93799C9.64895 9.93799 9.79192 9.99716 9.89738 10.1025L13.2499 13.4541L20.8924 5.8125H16.2499C16.1007 5.8125 15.9576 5.75324 15.8521 5.64775C15.7466 5.54226 15.6874 5.39918 15.6874 5.25C15.6874 5.10082 15.7466 4.95774 15.8521 4.85225C15.9576 4.74676 16.1007 4.6875 16.2499 4.6875H22.2499C22.3991 4.6875 22.5421 4.74676 22.6476 4.85225C22.7531 4.95774 22.8124 5.10082 22.8124 5.25Z" fill="#D8D8D8"/>
</g>
</svg>
