<svg width="26" height="26" viewBox="0 0 26 26" fill="none" xmlns="http://www.w3.org/2000/svg">
<path d="M7.69583 8.99663C7.69583 8.78502 7.77989 8.58208 7.92952 8.43245C8.07915 8.28282 8.28209 8.19876 8.4937 8.19876H17.0043C17.216 8.19876 17.4189 8.28282 17.5685 8.43245C17.7182 8.58208 17.8022 8.78502 17.8022 8.99663C17.8022 9.20824 17.7182 9.41118 17.5685 9.56081C17.4189 9.71044 17.216 9.79451 17.0043 9.79451H8.4937C8.28209 9.79451 8.07915 9.71044 7.92952 9.56081C7.77989 9.41118 7.69583 9.20824 7.69583 8.99663ZM8.4937 14.0498H17.0043C17.216 14.0498 17.4189 13.9658 17.5685 13.8161C17.7182 13.6665 17.8022 13.4636 17.8022 13.252C17.8022 13.0403 17.7182 12.8374 17.5685 12.6878C17.4189 12.5381 17.216 12.4541 17.0043 12.4541H8.4937C8.28209 12.4541 8.07915 12.5381 7.92952 12.6878C7.77989 12.8374 7.69583 13.0403 7.69583 13.252C7.69583 13.4636 7.77989 13.6665 7.92952 13.8161C8.07915 13.9658 8.28209 14.0498 8.4937 14.0498ZM12.749 16.7094H8.4937C8.28209 16.7094 8.07915 16.7935 7.92952 16.9431C7.77989 17.0927 7.69583 17.2957 7.69583 17.5073C7.69583 17.7189 7.77989 17.9218 7.92952 18.0715C8.07915 18.2211 8.28209 18.3051 8.4937 18.3051H12.749C12.9606 18.3051 13.1636 18.2211 13.3132 18.0715C13.4628 17.9218 13.5469 17.7189 13.5469 17.5073C13.5469 17.2957 13.4628 17.0927 13.3132 16.9431C13.1636 16.7935 12.9606 16.7094 12.749 16.7094ZM25.249 2.61366V17.0671C25.2495 17.3117 25.2015 17.5539 25.108 17.7798C25.0144 18.0058 24.877 18.211 24.7038 18.3836L17.8807 25.2067C17.708 25.38 17.5028 25.5173 17.2769 25.6109C17.051 25.7045 16.8087 25.7524 16.5642 25.7519H2.11073C1.61697 25.7519 1.14344 25.5558 0.794303 25.2067C0.445167 24.8575 0.249023 24.384 0.249023 23.8902V2.61366C0.249023 2.1199 0.445167 1.64637 0.794303 1.29723C1.14344 0.948096 1.61697 0.751953 2.11073 0.751953H23.3873C23.8811 0.751953 24.3546 0.948096 24.7037 1.29723C25.0529 1.64637 25.249 2.1199 25.249 2.61366ZM2.11073 24.1562H16.2065V17.5073C16.2065 17.2957 16.2905 17.0927 16.4402 16.9431C16.5898 16.7935 16.7927 16.7094 17.0043 16.7094H23.6533V2.61366C23.6533 2.54312 23.6253 2.47547 23.5754 2.42559C23.5255 2.37572 23.4579 2.3477 23.3873 2.3477H2.11073C2.04019 2.3477 1.97254 2.37572 1.92266 2.42559C1.87279 2.47547 1.84477 2.54312 1.84477 2.61366V23.8902C1.84477 23.9608 1.87279 24.0284 1.92266 24.0783C1.97254 24.1282 2.04019 24.1562 2.11073 24.1562ZM22.5256 18.3051H17.8022V23.0285L22.5256 18.3051Z" fill="#BA9E2E"/>
</svg>
