<svg width="25" height="24" viewBox="0 0 25 24" fill="none" xmlns="http://www.w3.org/2000/svg">
<g id="Frame">
<path id="Vector" d="M14.75 11.4375H13.0625V5.0625H14C14.8454 5.0625 15.6561 5.39832 16.2539 5.9961C16.8517 6.59387 17.1875 7.40462 17.1875 8.25C17.1875 8.39918 17.2468 8.54226 17.3523 8.64775C17.4577 8.75324 17.6008 8.8125 17.75 8.8125C17.8992 8.8125 18.0423 8.75324 18.1477 8.64775C18.2532 8.54226 18.3125 8.39918 18.3125 8.25C18.311 7.10671 17.8562 6.01067 17.0478 5.20225C16.2393 4.39382 15.1433 3.93899 14 3.9375H13.0625V2.25C13.0625 2.10082 13.0032 1.95774 12.8977 1.85225C12.7923 1.74676 12.6492 1.6875 12.5 1.6875C12.3508 1.6875 12.2077 1.74676 12.1023 1.85225C11.9968 1.95774 11.9375 2.10082 11.9375 2.25V3.9375H11C9.85625 3.9375 8.75935 4.39185 7.9506 5.2006C7.14185 6.00935 6.6875 7.10625 6.6875 8.25C6.6875 9.39375 7.14185 10.4906 7.9506 11.2994C8.75935 12.1081 9.85625 12.5625 11 12.5625H11.9375V18.9375H10.25C9.40462 18.9375 8.59387 18.6017 7.9961 18.0039C7.39832 17.4061 7.0625 16.5954 7.0625 15.75C7.0625 15.6008 7.00324 15.4577 6.89775 15.3523C6.79226 15.2468 6.64918 15.1875 6.5 15.1875C6.35082 15.1875 6.20774 15.2468 6.10225 15.3523C5.99676 15.4577 5.9375 15.6008 5.9375 15.75C5.93899 16.8933 6.39382 17.9893 7.20225 18.7978C8.01067 19.6062 9.10671 20.061 10.25 20.0625H11.9375V21.75C11.9375 21.8992 11.9968 22.0423 12.1023 22.1477C12.2077 22.2532 12.3508 22.3125 12.5 22.3125C12.6492 22.3125 12.7923 22.2532 12.8977 22.1477C13.0032 22.0423 13.0625 21.8992 13.0625 21.75V20.0625H14.75C15.8937 20.0625 16.9906 19.6081 17.7994 18.7994C18.6081 17.9906 19.0625 16.8937 19.0625 15.75C19.0625 14.6063 18.6081 13.5094 17.7994 12.7006C16.9906 11.8919 15.8937 11.4375 14.75 11.4375ZM11 11.4375C10.1546 11.4375 9.34387 11.1017 8.7461 10.5039C8.14832 9.90613 7.8125 9.09538 7.8125 8.25C7.8125 7.40462 8.14832 6.59387 8.7461 5.9961C9.34387 5.39832 10.1546 5.0625 11 5.0625H11.9375V11.4375H11ZM14.75 18.9375H13.0625V12.5625H14.75C15.5954 12.5625 16.4061 12.8983 17.0039 13.4961C17.6017 14.0939 17.9375 14.9046 17.9375 15.75C17.9375 16.5954 17.6017 17.4061 17.0039 18.0039C16.4061 18.6017 15.5954 18.9375 14.75 18.9375Z" fill="#D8D8D8"/>
</g>
</svg>
