<svg width="26" height="25" viewBox="0 0 26 25" fill="none" xmlns="http://www.w3.org/2000/svg">
<path d="M4.96652 5.02724C4.96652 4.89821 5.01778 4.77447 5.10901 4.68323C5.20025 4.59199 5.324 4.54074 5.45302 4.54074H10.6424C10.7715 4.54074 10.8952 4.59199 10.9865 4.68323C11.0777 4.77447 11.1289 4.89821 11.1289 5.02724C11.1289 5.15627 11.0777 5.28002 10.9865 5.37126C10.8952 5.46249 10.7715 5.51375 10.6424 5.51375H5.45302C5.324 5.51375 5.20025 5.46249 5.10901 5.37126C5.01778 5.28002 4.96652 5.15627 4.96652 5.02724ZM5.45302 8.10846H10.6424C10.7715 8.10846 10.8952 8.0572 10.9865 7.96596C11.0777 7.87473 11.1289 7.75098 11.1289 7.62195C11.1289 7.49292 11.0777 7.36918 10.9865 7.27794C10.8952 7.1867 10.7715 7.13544 10.6424 7.13544H5.45302C5.324 7.13544 5.20025 7.1867 5.10901 7.27794C5.01778 7.36918 4.96652 7.49292 4.96652 7.62195C4.96652 7.75098 5.01778 7.87473 5.10901 7.96596C5.20025 8.0572 5.324 8.10846 5.45302 8.10846ZM8.04773 9.73015H5.45302C5.324 9.73015 5.20025 9.78141 5.10901 9.87264C5.01778 9.96388 4.96652 10.0876 4.96652 10.2167C4.96652 10.3457 5.01778 10.4694 5.10901 10.5607C5.20025 10.6519 5.324 10.7032 5.45302 10.7032H8.04773C8.17676 10.7032 8.30051 10.6519 8.39175 10.5607C8.48298 10.4694 8.53424 10.3457 8.53424 10.2167C8.53424 10.0876 8.48298 9.96388 8.39175 9.87264C8.30051 9.78141 8.17676 9.73015 8.04773 9.73015ZM15.6697 1.13518V9.94827C15.67 10.0974 15.6407 10.2451 15.5837 10.3829C15.5266 10.5206 14.9456 10.4554 14.84 10.5607H11.1289C11.0237 10.6663 10.9464 15.1008 10.8086 15.1579C10.6709 15.2149 10.5232 15.2442 10.374 15.2439H1.56097C1.2599 15.2439 0.971157 15.1243 0.758269 14.9114C0.545381 14.6985 0.425781 14.4098 0.425781 14.1087V1.13518C0.425781 0.834115 0.545381 0.545376 0.758269 0.332488C0.971157 0.119599 1.2599 0 1.56097 0H14.5345C14.8356 0 15.1243 0.119599 15.3372 0.332488C15.5501 0.545376 15.6697 0.834115 15.6697 1.13518ZM1.56097 14.2709H10.1559V10.2167C10.1559 10.0876 10.2072 9.96388 10.2984 9.87264C10.3897 9.78141 10.5134 9.73015 10.6424 9.73015H14.6967V1.13518C14.6967 1.09217 14.6796 1.05093 14.6492 1.02051C14.6188 0.990101 14.5775 0.973015 14.5345 0.973015H1.56097C1.51796 0.973015 1.47671 0.990101 1.44629 1.02051C1.41588 1.05093 1.3988 1.09217 1.3988 1.13518V14.1087C1.3988 14.1517 1.41588 14.193 1.44629 14.2234C1.47671 14.2538 1.51796 14.2709 1.56097 14.2709Z" fill="#BA9E2E"/>
<path d="M14.7226 14.7833C14.7226 14.6543 14.7739 14.5306 14.8651 14.4393C14.9563 14.3481 15.0801 14.2968 15.2091 14.2968H20.3985C20.5276 14.2968 20.6513 14.3481 20.7425 14.4393C20.8338 14.5306 20.885 14.6543 20.885 14.7833C20.885 14.9124 20.8338 15.0361 20.7425 15.1274C20.6513 15.2186 20.5276 15.2698 20.3985 15.2698H15.2091C15.0801 15.2698 14.9563 15.2186 14.8651 15.1274C14.7739 15.0361 14.7226 14.9124 14.7226 14.7833ZM15.2091 17.8646H20.3985C20.5276 17.8646 20.6513 17.8133 20.7425 17.7221C20.8338 17.6308 20.885 17.5071 20.885 17.378C20.885 17.249 20.8338 17.1253 20.7425 17.034C20.6513 16.9428 20.5276 16.8915 20.3985 16.8915H15.2091C15.0801 16.8915 14.9563 16.9428 14.8651 17.034C14.7739 17.1253 14.7226 17.249 14.7226 17.378C14.7226 17.5071 14.7739 17.6308 14.8651 17.7221C14.9563 17.8133 15.0801 17.8646 15.2091 17.8646ZM17.8038 19.4862H15.2091C15.0801 19.4862 14.9563 19.5375 14.8651 19.6287C14.7739 19.72 14.7226 19.8437 14.7226 19.9728C14.7226 20.1018 14.7739 20.2255 14.8651 20.3168C14.9563 20.408 15.0801 20.4593 15.2091 20.4593H17.8038C17.9329 20.4593 18.0566 20.408 18.1478 20.3168C18.2391 20.2255 18.2903 20.1018 18.2903 19.9728C18.2903 19.8437 18.2391 19.72 18.1478 19.6287C18.0566 19.5375 17.9329 19.4862 17.8038 19.4862ZM25.4258 10.8913V19.7044C25.4261 19.8535 25.3968 20.0012 25.3398 20.139C25.2827 20.2767 25.199 20.4018 25.0933 20.5071L20.9329 24.6676C20.8276 24.7732 20.7025 24.8569 20.5647 24.914C20.427 24.971 20.2793 25.0003 20.1301 25H11.3171C11.016 25 10.7273 24.8804 10.5144 24.6675C10.3015 24.4546 10.1819 24.1659 10.1819 23.8648V10.8913C10.1819 10.5902 10.3015 10.3015 10.5144 10.0886C10.7273 9.8757 11.016 9.7561 11.3171 9.7561H24.2906C24.5917 9.7561 24.8804 9.8757 25.0933 10.0886C25.3062 10.3015 25.4258 10.5902 25.4258 10.8913ZM11.3171 24.027H19.912V19.9728C19.912 19.8437 19.9633 19.72 20.0545 19.6287C20.1458 19.5375 20.2695 19.4862 20.3985 19.4862H24.4528V10.8913C24.4528 10.8483 24.4357 10.807 24.4053 10.7766C24.3749 10.7462 24.3336 10.7291 24.2906 10.7291H11.3171C11.2741 10.7291 11.2328 10.7462 11.2024 10.7766C11.172 10.807 11.1549 10.8483 11.1549 10.8913V23.8648C11.1549 23.9078 11.172 23.9491 11.2024 23.9795C11.2328 24.0099 11.2741 24.027 11.3171 24.027ZM23.7652 20.4593H20.885V23.3394L23.7652 20.4593Z" fill="#BA9E2E"/>
</svg>
