<svg width="25" height="24" viewBox="0 0 25 24" fill="none" xmlns="http://www.w3.org/2000/svg">
<g id="Frame" clip-path="url(#clip0_112_3949)">
<path id="Vector" d="M11.0563 14.8528C12.1008 14.2607 12.92 13.3396 13.3861 12.2331C13.8522 11.1265 13.9389 9.89685 13.6328 8.73586C13.3266 7.57487 12.6448 6.54786 11.6937 5.81504C10.7426 5.08222 9.57569 4.68481 8.37501 4.68481C7.17434 4.68481 6.00742 5.08222 5.05631 5.81504C4.1052 6.54786 3.42339 7.57487 3.11724 8.73586C2.81109 9.89685 2.89783 11.1265 3.36391 12.2331C3.82999 13.3396 4.64921 14.2607 5.69376 14.8528C3.7578 15.47 2.09521 16.7384 0.988452 18.4425C0.906898 18.5674 0.878317 18.7196 0.908996 18.8656C0.939676 19.0117 1.0271 19.1395 1.15205 19.2211C1.27699 19.3026 1.42921 19.3312 1.57522 19.3005C1.72124 19.2698 1.84909 19.1824 1.93064 19.0575C2.62871 17.9842 3.5838 17.1022 4.7092 16.4917C5.8346 15.8811 7.09467 15.5614 8.37501 15.5614C9.65536 15.5614 10.9154 15.8811 12.0408 16.4917C13.1662 17.1022 14.1213 17.9842 14.8194 19.0575C14.9063 19.1688 15.0318 19.2434 15.1711 19.2664C15.3104 19.2894 15.4533 19.2592 15.5714 19.1818C15.6895 19.1043 15.7741 18.9853 15.8085 18.8483C15.8428 18.7114 15.8244 18.5665 15.7569 18.4425C14.6513 16.7392 12.9905 15.4709 11.0563 14.8528ZM4.06251 10.125C4.06251 9.27204 4.31544 8.43826 4.7893 7.72907C5.26316 7.01988 5.93669 6.46714 6.72469 6.14074C7.5127 5.81433 8.3798 5.72893 9.21634 5.89533C10.0529 6.06173 10.8213 6.47246 11.4244 7.07557C12.0275 7.67868 12.4383 8.4471 12.6047 9.28364C12.771 10.1202 12.6856 10.9873 12.3592 11.7753C12.0328 12.5633 11.4801 13.2368 10.7709 13.7107C10.0617 14.1845 9.22795 14.4375 8.37501 14.4375C7.23173 14.436 6.13569 13.9812 5.32726 13.1727C4.51883 12.3643 4.064 11.2683 4.06251 10.125ZM23.8438 19.2187C23.7189 19.3002 23.5668 19.3288 23.4209 19.2982C23.275 19.2676 23.1473 19.1803 23.0656 19.0556C22.3688 17.9822 21.4144 17.1002 20.2895 16.4901C19.1645 15.88 17.9048 15.5611 16.625 15.5625C16.4758 15.5625 16.3328 15.5032 16.2273 15.3977C16.1218 15.2922 16.0625 15.1492 16.0625 15C16.0625 14.8508 16.1218 14.7077 16.2273 14.6022C16.3328 14.4967 16.4758 14.4375 16.625 14.4375C17.2601 14.4368 17.8871 14.2959 18.4614 14.0249C19.0357 13.7538 19.543 13.3593 19.9472 12.8694C20.3513 12.3796 20.6423 11.8065 20.7993 11.1912C20.9563 10.5758 20.9755 9.9334 20.8554 9.3098C20.7354 8.6862 20.4791 8.09681 20.1049 7.58374C19.7307 7.07066 19.2478 6.64656 18.6907 6.34174C18.1335 6.03692 17.516 5.8589 16.8821 5.8204C16.2482 5.7819 15.6137 5.88387 15.0238 6.11903C14.9551 6.14716 14.8815 6.16141 14.8072 6.16097C14.733 6.16052 14.6596 6.14538 14.5912 6.11643C14.5229 6.08747 14.4609 6.04527 14.4089 5.99226C14.357 5.93924 14.316 5.87647 14.2884 5.80755C14.2608 5.73863 14.2471 5.66493 14.2482 5.59069C14.2492 5.51646 14.2649 5.44317 14.2944 5.37504C14.3239 5.30691 14.3666 5.24529 14.42 5.19373C14.4734 5.14218 14.5365 5.10171 14.6056 5.07466C15.8852 4.56454 17.3106 4.55904 18.594 5.05928C19.8774 5.55952 20.9232 6.52821 21.52 7.76967C22.1168 9.01113 22.2202 10.4328 21.8093 11.7476C21.3984 13.0623 20.5038 14.1721 19.3063 14.8528C21.2422 15.47 22.9048 16.7384 24.0116 18.4425C24.092 18.5677 24.1195 18.7198 24.0881 18.8653C24.0566 19.0108 23.9688 19.1379 23.8438 19.2187Z" fill="black"/>
</g>
<defs>
<clipPath id="clip0_112_3949">
<rect width="24" height="24" fill="white" transform="translate(0.5)"/>
</clipPath>
</defs>
</svg>
