<svg width="20" height="20" viewBox="0 0 20 20" fill="none" xmlns="http://www.w3.org/2000/svg">
<g id="Frame">
<path id="Vector" d="M16.2118 14.5004H15.7677V3.99484L16.3045 3.82155C16.3627 3.80516 16.4182 3.77142 16.4677 3.72233C16.5171 3.67325 16.5595 3.6098 16.5923 3.53574C16.6252 3.46168 16.6478 3.37851 16.6589 3.29111C16.67 3.20372 16.6693 3.11388 16.6569 3.0269C16.6444 2.93991 16.6206 2.85753 16.5866 2.78462C16.5526 2.71171 16.5093 2.64974 16.4591 2.60236C16.4089 2.55499 16.353 2.52317 16.2945 2.50878C16.236 2.49439 16.1761 2.49772 16.1185 2.51857L3.6842 6.5175C3.57708 6.55219 3.48229 6.6451 3.41806 6.77836C3.35383 6.91162 3.3247 7.07582 3.33627 7.23937C3.34784 7.40292 3.3993 7.55428 3.48075 7.66432C3.56219 7.77436 3.66787 7.83533 3.77746 7.83548C3.80899 7.83539 3.84043 7.83037 3.87127 7.82048L4.22154 7.70801V14.5004H3.77746C3.65968 14.5004 3.54672 14.5706 3.46344 14.6956C3.38016 14.8206 3.33337 14.9901 3.33337 15.1668C3.33337 15.3436 3.38016 15.5131 3.46344 15.6381C3.54672 15.7631 3.65968 15.8333 3.77746 15.8333H16.2118C16.3296 15.8333 16.4425 15.7631 16.5258 15.6381C16.6091 15.5131 16.6559 15.3436 16.6559 15.1668C16.6559 14.9901 16.6091 14.8206 16.5258 14.6956C16.4425 14.5706 16.3296 14.5004 16.2118 14.5004ZM13.1032 14.5004H6.88604V13.1674H13.1032V14.5004ZM13.1032 11.8344H6.88604V10.5014H13.1032V11.8344Z" fill="#BA9E2E"/>
</g>
</svg>
