<svg width="17" height="17" viewBox="0 0 17 17" fill="none" xmlns="http://www.w3.org/2000/svg">
<path d="M15.9002 10.0289L15.0948 10.8343L13.484 9.22345L14.2894 8.41804C14.37 8.3375 14.4505 8.25696 14.6116 8.25696C14.6921 8.25696 14.8532 8.3375 14.9338 8.41804L15.9808 9.46507C16.0613 9.62615 16.0613 9.86777 15.9002 10.0289ZM8.08778 14.5391V16.2305H9.77914L14.6921 11.3175L13.0813 9.70669L8.08778 14.5391ZM14.5311 2.53855C14.5311 1.6526 13.8062 0.927734 12.9202 0.927734H1.64451C0.758559 0.927734 0.0336914 1.6526 0.0336914 2.53855V13.8143C0.0336914 14.7002 0.758559 15.4251 1.64451 15.4251H6.47696V13.8948L7.36291 13.0089H1.64451L4.46344 9.38453L6.47696 11.8008L9.29589 8.17641L10.5845 9.86777L14.5311 5.84073V2.53855Z" fill="#BA9E2E"/>
</svg>
