<svg width="122" height="122" viewBox="0 0 122 122" fill="none" xmlns="http://www.w3.org/2000/svg">
    <path d="M96.5306 30.7904H56.1973L46.1139 20.707H20.9056C15.3598 20.707 10.8223 25.2445 10.8223 30.7904V91.2904C10.8223 96.8362 15.3598 101.374 20.9056 101.374H99.0514C103.337 101.374 106.614 98.0966 106.614 93.8112V40.8737C106.614 35.3279 102.076 30.7904 96.5306 30.7904Z" fill="#BA9E2E"/>
    <path d="M107.117 45.9141H39.3064C34.5168 45.9141 30.2314 49.4432 29.4751 54.2328L20.9043 101.372H100.815C105.604 101.372 109.89 97.8432 110.646 93.0536L116.948 57.762C118.208 51.712 113.419 45.9141 107.117 45.9141Z" fill="#D6BC51"/>
</svg>
