<svg width="15" height="15" viewBox="0 0 15 15" fill="none" xmlns="http://www.w3.org/2000/svg">
<path d="M13.806 12.7781H13.3397V1.74732L13.9034 1.56537C13.9645 1.54815 14.0228 1.51272 14.0747 1.46118C14.1266 1.40964 14.1711 1.34303 14.2056 1.26526C14.2401 1.1875 14.2638 1.10017 14.2755 1.0084C14.2871 0.916642 14.2864 0.822313 14.2733 0.730975C14.2603 0.639638 14.2352 0.553142 14.1996 0.476585C14.1639 0.400028 14.1184 0.33496 14.0657 0.285217C14.013 0.235474 13.9543 0.202063 13.8928 0.186952C13.8314 0.171841 13.7686 0.175337 13.7081 0.197234L0.652058 4.39611C0.539581 4.43254 0.440049 4.53009 0.372609 4.67002C0.305169 4.80994 0.274583 4.98235 0.286734 5.15408C0.298885 5.3258 0.352915 5.48473 0.438432 5.60027C0.523949 5.71582 0.634912 5.77983 0.749979 5.77999C0.783089 5.7799 0.816102 5.77462 0.848482 5.76424L1.21627 5.64615V12.7781H0.749979C0.626312 12.7781 0.50771 12.8518 0.420264 12.9831C0.332818 13.1143 0.283691 13.2923 0.283691 13.4779C0.283691 13.6635 0.332818 13.8415 0.420264 13.9728C0.50771 14.104 0.626312 14.1777 0.749979 14.1777H13.806C13.9297 14.1777 14.0483 14.104 14.1357 13.9728C14.2232 13.8415 14.2723 13.6635 14.2723 13.4779C14.2723 13.2923 14.2232 13.1143 14.1357 12.9831C14.0483 12.8518 13.9297 12.7781 13.806 12.7781ZM10.542 12.7781H4.01399V11.3785H10.542V12.7781ZM10.542 9.97886H4.01399V8.57924H10.542V9.97886Z" fill="#2C2D33"/>
</svg>
