<svg width="19" height="19" viewBox="0 0 19 19" fill="none" xmlns="http://www.w3.org/2000/svg">
<path d="M14.2299 11.3277V7.12773L10.0299 2.92773H4.42991C4.0586 2.92773 3.70251 3.07523 3.43996 3.33778C3.17741 3.60034 3.02991 3.95643 3.02991 4.32773V15.5277C3.02991 15.899 3.17741 16.2551 3.43996 16.5177C3.70251 16.7802 4.0586 16.9277 4.42991 16.9277H12.8299C13.2012 16.9277 13.5573 16.7802 13.8199 16.5177C14.0824 16.2551 14.2299 15.899 14.2299 15.5277V12.7277H9.32991V14.8277L5.82991 12.0277L9.32991 9.22773V11.3277H14.2299ZM9.32991 4.32773L12.8299 7.82773H9.32991V4.32773Z" fill="#2C2D33"/>
</svg>
