<svg width="19" height="19" viewBox="0 0 19 19" fill="none" xmlns="http://www.w3.org/2000/svg">
<path fill-rule="evenodd" clip-rule="evenodd" d="M7.5582 3.01361C7.86226 2.9224 8.18344 2.90353 8.4961 2.95851C8.80876 3.0135 9.10423 3.14081 9.35893 3.33029C9.61364 3.51976 9.82052 3.76616 9.96307 4.04981C10.1056 4.33346 10.1799 4.64651 10.1799 4.96396V14.8915C10.1799 15.209 10.1056 15.522 9.96307 15.8057C9.82052 16.0893 9.61364 16.3357 9.35893 16.5252C9.10423 16.7147 8.80876 16.842 8.4961 16.897C8.18344 16.9519 7.86226 16.9331 7.5582 16.8419L3.48508 15.6199C3.06562 15.4941 2.69789 15.2364 2.43644 14.8851C2.175 14.5337 2.03376 14.1075 2.03369 13.6696V6.1859C2.03376 5.74797 2.175 5.32172 2.43644 4.9704C2.69789 4.61907 3.06562 4.36138 3.48508 4.23555L7.5582 3.01361ZM10.8588 4.49691C10.8588 4.31687 10.9303 4.1442 11.0576 4.01689C11.1849 3.88958 11.3576 3.81806 11.5376 3.81806H13.5742C14.1143 3.81806 14.6323 4.03262 15.0143 4.41455C15.3962 4.79648 15.6108 5.31449 15.6108 5.85462V6.53347C15.6108 6.71351 15.5392 6.88618 15.4119 7.01349C15.2846 7.1408 15.1119 7.21232 14.9319 7.21232C14.7519 7.21232 14.5792 7.1408 14.4519 7.01349C14.3246 6.88618 14.253 6.71351 14.253 6.53347V5.85462C14.253 5.67457 14.1815 5.5019 14.0542 5.37459C13.9269 5.24728 13.7542 5.17576 13.5742 5.17576H11.5376C11.3576 5.17576 11.1849 5.10424 11.0576 4.97693C10.9303 4.84962 10.8588 4.67695 10.8588 4.49691ZM14.9319 12.6431C15.1119 12.6431 15.2846 12.7147 15.4119 12.842C15.5392 12.9693 15.6108 13.142 15.6108 13.322V14.0009C15.6108 14.541 15.3962 15.059 15.0143 15.4409C14.6323 15.8228 14.1143 16.0374 13.5742 16.0374H11.5376C11.3576 16.0374 11.1849 15.9659 11.0576 15.8386C10.9303 15.7113 10.8588 15.5386 10.8588 15.3586C10.8588 15.1785 10.9303 15.0058 11.0576 14.8785C11.1849 14.7512 11.3576 14.6797 11.5376 14.6797H13.5742C13.7542 14.6797 13.9269 14.6082 14.0542 14.4809C14.1815 14.3536 14.253 14.1809 14.253 14.0009V13.322C14.253 13.142 14.3246 12.9693 14.4519 12.842C14.5792 12.7147 14.7519 12.6431 14.9319 12.6431ZM6.78566 9.24888C6.60562 9.24888 6.43295 9.3204 6.30564 9.44771C6.17833 9.57502 6.10681 9.74769 6.10681 9.92773C6.10681 10.1078 6.17833 10.2804 6.30564 10.4078C6.43295 10.5351 6.60562 10.6066 6.78566 10.6066H6.78634C6.96639 10.6066 7.13905 10.5351 7.26636 10.4078C7.39367 10.2804 7.4652 10.1078 7.4652 9.92773C7.4652 9.74769 7.39367 9.57502 7.26636 9.44771C7.13905 9.3204 6.96639 9.24888 6.78634 9.24888H6.78566Z" fill="#BA9E2E"/>
<path fill-rule="evenodd" clip-rule="evenodd" d="M13.0942 8.09001C13.3593 7.8249 13.7891 7.8249 14.0542 8.09001L15.4119 9.44771C15.677 9.71282 15.677 10.1426 15.4119 10.4078L14.0542 11.7655C13.7891 12.0306 13.3593 12.0306 13.0942 11.7655C12.8291 11.5004 12.8291 11.0705 13.0942 10.8054L13.293 10.6066H11.5376C11.1627 10.6066 10.8588 10.3027 10.8588 9.92773C10.8588 9.55281 11.1627 9.24888 11.5376 9.24888H13.293L13.0942 9.05005C12.8291 8.78494 12.8291 8.35511 13.0942 8.09001Z" fill="#BA9E2E"/>
</svg>
