<svg width="26" height="25" viewBox="0 0 26 25" fill="none" xmlns="http://www.w3.org/2000/svg">
<path d="M6.43127 6.64894C6.43127 6.47828 6.49906 6.31462 6.61973 6.19395C6.7404 6.07328 6.90406 6.00549 7.07472 6.00549H13.9381C14.1088 6.00549 14.2724 6.07328 14.3931 6.19395C14.5138 6.31462 14.5816 6.47828 14.5816 6.64894C14.5816 6.81959 14.5138 6.98325 14.3931 7.10392C14.2724 7.22459 14.1088 7.29238 13.9381 7.29238H7.07472C6.90406 7.29238 6.7404 7.22459 6.61973 7.10392C6.49906 6.98325 6.43127 6.81959 6.43127 6.64894ZM7.07472 10.7241H13.9381C14.1088 10.7241 14.2724 10.6563 14.3931 10.5356C14.5138 10.415 14.5816 10.2513 14.5816 10.0806C14.5816 9.90999 14.5138 9.74633 14.3931 9.62566C14.2724 9.50499 14.1088 9.4372 13.9381 9.4372H7.07472C6.90406 9.4372 6.7404 9.50499 6.61973 9.62566C6.49906 9.74633 6.43127 9.90999 6.43127 10.0806C6.43127 10.2513 6.49906 10.415 6.61973 10.5356C6.7404 10.6563 6.90406 10.7241 7.07472 10.7241ZM10.5064 12.8689H7.07472C6.90406 12.8689 6.7404 12.9367 6.61973 13.0574C6.49906 13.178 6.43127 13.3417 6.43127 13.5124C6.43127 13.683 6.49906 13.8467 6.61973 13.9673C6.7404 14.088 6.90406 14.1558 7.07472 14.1558H10.5064C10.6771 14.1558 10.8407 14.088 10.9614 13.9673C11.0821 13.8467 11.1499 13.683 11.1499 13.5124C11.1499 13.3417 11.0821 13.178 10.9614 13.0574C10.8407 12.9367 10.6771 12.8689 10.5064 12.8689ZM20.5871 1.50137V13.1574C20.5874 13.3546 20.5488 13.5499 20.4733 13.7322C20.3979 13.9144 20.2871 14.0799 20.1474 14.2191L14.6449 19.7216C14.5056 19.8613 14.3402 19.9721 14.1579 20.0475C13.9757 20.123 13.7804 20.1617 13.5832 20.1613H1.92715C1.52897 20.1613 1.14709 20.0031 0.865523 19.7215C0.583961 19.44 0.425781 19.0581 0.425781 18.6599V1.50137C0.425781 1.10318 0.583961 0.721304 0.865523 0.439742C1.14709 0.15818 1.52897 0 1.92715 0H19.0857C19.4839 0 19.8658 0.15818 20.1473 0.439742C20.4289 0.721304 20.5871 1.10318 20.5871 1.50137ZM1.92715 18.8744H13.2947V13.5124C13.2947 13.3417 13.3625 13.178 13.4831 13.0574C13.6038 12.9367 13.7675 12.8689 13.9381 12.8689H19.3002V1.50137C19.3002 1.44449 19.2776 1.38993 19.2374 1.34971C19.1971 1.30949 19.1426 1.28689 19.0857 1.28689H1.92715C1.87027 1.28689 1.81572 1.30949 1.77549 1.34971C1.73527 1.38993 1.71267 1.44449 1.71267 1.50137V18.6599C1.71267 18.7168 1.73527 18.7714 1.77549 18.8116C1.81572 18.8518 1.87027 18.8744 1.92715 18.8744ZM18.3908 14.1558H14.5816V17.965L18.3908 14.1558Z" fill="#BA9E2E"/>
<path d="M23.0064 3.92073V15.5767C23.0068 15.774 22.9681 15.9693 22.8927 16.1515C22.8172 16.3337 22.7064 16.4992 22.5667 16.6384L17.0642 22.141C16.925 22.2807 16.7595 22.3914 16.5773 22.4669C16.3951 22.5423 16.1997 22.581 16.0025 22.5806H4.34651C3.94832 22.5806 3.56644 22.4225 3.28488 22.1409C3.00332 21.8593 2.84514 21.4775 2.84514 21.0793H4.13203C4.13203 21.1362 4.15462 21.1907 4.19485 21.2309C4.23507 21.2712 4.28962 21.2938 4.34651 21.2938H15.714L21.7195 15.2883V3.92073C21.7195 3.86384 21.6969 3.80929 21.6567 3.76907C21.6165 3.72884 21.5619 3.70625 21.5051 3.70625V2.41935C21.9032 2.41935 22.2851 2.57753 22.5667 2.8591C22.8482 3.14066 23.0064 3.52254 23.0064 3.92073Z" fill="#BA9E2E"/>
<path d="M25.4258 6.34008V17.9961C25.4261 18.1933 25.3875 18.3887 25.312 18.5709C25.2366 18.7531 25.1258 18.9186 24.9861 19.0578L19.4836 24.5603C19.3443 24.7 19.1789 24.8108 18.9967 24.8862C18.8144 24.9617 18.6191 25.0004 18.4219 25H6.76586C6.36767 25 5.9858 24.8418 5.70423 24.5603C5.42267 24.2787 5.26449 23.8968 5.26449 23.4986H6.55138C6.55138 23.5555 6.57398 23.6101 6.6142 23.6503C6.65442 23.6905 6.70898 23.7131 6.76586 23.7131H18.1334L24.1389 17.7076V6.34008C24.1389 6.2832 24.1163 6.22864 24.0761 6.18842C24.0358 6.1482 23.9813 6.1256 23.9244 6.1256V4.83871C24.3226 4.83871 24.7045 4.99689 24.986 5.27845C25.2676 5.56001 25.4258 5.94189 25.4258 6.34008Z" fill="#BA9E2E"/>
</svg>
