<svg width="20" height="20" viewBox="0 0 20 20" fill="none" xmlns="http://www.w3.org/2000/svg">
<g id="Frame">
<path id="Vector" d="M18.0414 17.1876C17.9865 17.2826 17.9076 17.3615 17.8125 17.4164C17.7175 17.4712 17.6097 17.5001 17.5 17.5001H2.49997C2.39031 17.4999 2.28262 17.471 2.18769 17.4161C2.09277 17.3612 2.01396 17.2823 1.95918 17.1873C1.9044 17.0923 1.87558 16.9845 1.87561 16.8749C1.87564 16.7652 1.90452 16.6575 1.95934 16.5626C3.14919 14.5055 4.98278 13.0305 7.12263 12.3313C6.06416 11.7012 5.2418 10.741 4.78183 9.59833C4.32187 8.45561 4.24972 7.19349 4.57649 6.0058C4.90325 4.81811 5.61085 3.77051 6.59061 3.0239C7.57038 2.27728 8.76815 1.87292 9.99997 1.87292C11.2318 1.87292 12.4296 2.27728 13.4093 3.0239C14.3891 3.77051 15.0967 4.81811 15.4235 6.0058C15.7502 7.19349 15.6781 8.45561 15.2181 9.59833C14.7581 10.741 13.9358 11.7012 12.8773 12.3313C15.0172 13.0305 16.8508 14.5055 18.0406 16.5626C18.0956 16.6575 18.1246 16.7652 18.1247 16.8749C18.1249 16.9847 18.0961 17.0925 18.0414 17.1876Z" fill="#BA9E2E"/>
</g>
</svg>
