<svg width="45" height="44" viewBox="0 0 45 44" fill="none" xmlns="http://www.w3.org/2000/svg">
<g id="Frame" clip-path="url(#clip0_27_92)">
<path id="Vector" d="M23.875 37.125V5.50003C23.8749 5.25118 23.8072 5.00704 23.6792 4.79363C23.5512 4.58023 23.3677 4.40556 23.1482 4.28824C22.9288 4.17093 22.6816 4.11537 22.433 4.12749C22.1845 4.13961 21.9439 4.21895 21.7369 4.35706L7.98688 13.5232C7.79828 13.649 7.64372 13.8195 7.53697 14.0195C7.43021 14.2195 7.37457 14.4428 7.375 14.6696V37.125" stroke="url(#paint0_linear_27_92)" stroke-width="2" stroke-linecap="round" stroke-linejoin="round"/>
<path id="Vector_2" d="M23.875 15.125H36.25C36.6147 15.125 36.9644 15.2699 37.2223 15.5277C37.4801 15.7856 37.625 16.1353 37.625 16.5V37.125" stroke="url(#paint1_linear_27_92)" stroke-width="2" stroke-linecap="round" stroke-linejoin="round"/>
<path id="Vector_3" d="M3.25 37.125H41.75" stroke="url(#paint2_linear_27_92)" stroke-width="2" stroke-linecap="round" stroke-linejoin="round"/>
<path id="Vector_4" d="M18.375 19.25V22" stroke="url(#paint3_linear_27_92)" stroke-width="2" stroke-linecap="round" stroke-linejoin="round"/>
<path id="Vector_5" d="M12.875 19.25V22" stroke="url(#paint4_linear_27_92)" stroke-width="2" stroke-linecap="round" stroke-linejoin="round"/>
<path id="Vector_6" d="M12.875 28.875V31.625" stroke="url(#paint5_linear_27_92)" stroke-width="2" stroke-linecap="round" stroke-linejoin="round"/>
<path id="Vector_7" d="M18.375 28.875V31.625" stroke="url(#paint6_linear_27_92)" stroke-width="2" stroke-linecap="round" stroke-linejoin="round"/>
</g>
<defs>
<linearGradient id="paint0_linear_27_92" x1="19.5176" y1="9.07575" x2="8.97867" y2="9.27184" gradientUnits="userSpaceOnUse">
<stop stop-color="#B5992A"/>
<stop offset="1" stop-color="#FFE580"/>
</linearGradient>
<linearGradient id="paint1_linear_27_92" x1="33.9938" y1="18.425" x2="25.2131" y2="18.6292" gradientUnits="userSpaceOnUse">
<stop stop-color="#B5992A"/>
<stop offset="1" stop-color="#FFE580"/>
</linearGradient>
<linearGradient id="paint2_linear_27_92" x1="31.5827" y1="37.275" x2="23.524" y2="48.8204" gradientUnits="userSpaceOnUse">
<stop stop-color="#B5992A"/>
<stop offset="1" stop-color="#FFE580"/>
</linearGradient>
<linearGradient id="paint3_linear_27_92" x1="19.1109" y1="19.6625" x2="18.4721" y2="19.6711" gradientUnits="userSpaceOnUse">
<stop stop-color="#B5992A"/>
<stop offset="1" stop-color="#FFE580"/>
</linearGradient>
<linearGradient id="paint4_linear_27_92" x1="13.6109" y1="19.6625" x2="12.9721" y2="19.6711" gradientUnits="userSpaceOnUse">
<stop stop-color="#B5992A"/>
<stop offset="1" stop-color="#FFE580"/>
</linearGradient>
<linearGradient id="paint5_linear_27_92" x1="13.6109" y1="29.2875" x2="12.9721" y2="29.2961" gradientUnits="userSpaceOnUse">
<stop stop-color="#B5992A"/>
<stop offset="1" stop-color="#FFE580"/>
</linearGradient>
<linearGradient id="paint6_linear_27_92" x1="19.1109" y1="29.2875" x2="18.4721" y2="29.2961" gradientUnits="userSpaceOnUse">
<stop stop-color="#B5992A"/>
<stop offset="1" stop-color="#FFE580"/>
</linearGradient>
<clipPath id="clip0_27_92">
<rect width="44" height="44" fill="white" transform="translate(0.5)"/>
</clipPath>
</defs>
</svg>
