<svg width="15" height="15" viewBox="0 0 15 15" fill="none" xmlns="http://www.w3.org/2000/svg">
<path d="M12.867 0.927734H1.20036C0.890939 0.927734 0.594193 1.05065 0.3754 1.26944C0.156608 1.48824 0.0336914 1.78498 0.0336914 2.0944V13.7611C0.0336914 14.0705 0.156608 14.3672 0.3754 14.586C0.594193 14.8048 0.890939 14.9277 1.20036 14.9277H9.12567C9.2789 14.928 9.43066 14.8979 9.5722 14.8392C9.71375 14.7805 9.84227 14.6944 9.95036 14.5858L13.6917 10.8444C13.8003 10.7363 13.8865 10.6078 13.9452 10.4662C14.0038 10.3247 14.0339 10.1729 14.0337 10.0197V2.0944C14.0337 1.78498 13.9108 1.48824 13.692 1.26944C13.4732 1.05065 13.1764 0.927734 12.867 0.927734ZM4.70036 5.01107H9.36702C9.52173 5.01107 9.67011 5.07253 9.7795 5.18192C9.8889 5.29132 9.95036 5.43969 9.95036 5.5944C9.95036 5.74911 9.8889 5.89748 9.7795 6.00688C9.67011 6.11628 9.52173 6.17773 9.36702 6.17773H4.70036C4.54565 6.17773 4.39728 6.11628 4.28788 6.00688C4.17848 5.89748 4.11702 5.74911 4.11702 5.5944C4.11702 5.43969 4.17848 5.29132 4.28788 5.18192C4.39728 5.07253 4.54565 5.01107 4.70036 5.01107ZM7.03369 10.8444H4.70036C4.54565 10.8444 4.39728 10.7829 4.28788 10.6735C4.17848 10.5642 4.11702 10.4158 4.11702 10.2611C4.11702 10.1064 4.17848 9.95798 4.28788 9.84859C4.39728 9.73919 4.54565 9.67773 4.70036 9.67773H7.03369C7.1884 9.67773 7.33677 9.73919 7.44617 9.84859C7.55557 9.95798 7.61702 10.1064 7.61702 10.2611C7.61702 10.4158 7.55557 10.5642 7.44617 10.6735C7.33677 10.7829 7.1884 10.8444 7.03369 10.8444ZM4.70036 8.51107C4.54565 8.51107 4.39728 8.44961 4.28788 8.34021C4.17848 8.23082 4.11702 8.08244 4.11702 7.92773C4.11702 7.77302 4.17848 7.62465 4.28788 7.51526C4.39728 7.40586 4.54565 7.3444 4.70036 7.3444H9.36702C9.52173 7.3444 9.67011 7.40586 9.7795 7.51526C9.8889 7.62465 9.95036 7.77302 9.95036 7.92773C9.95036 8.08244 9.8889 8.23082 9.7795 8.34021C9.67011 8.44961 9.52173 8.51107 9.36702 8.51107H4.70036ZM9.36702 13.5197V10.2611H12.6264L9.36702 13.5197Z" fill="#2C2D33"/>
</svg>
