<svg width="15" height="15" viewBox="0 0 15 15" fill="none" xmlns="http://www.w3.org/2000/svg">
<path d="M13.9619 14.1226C13.9146 14.2045 13.8466 14.2725 13.7647 14.3197C13.6828 14.367 13.59 14.3919 13.4954 14.3918H0.57163C0.477152 14.3917 0.384363 14.3668 0.302578 14.3195C0.220794 14.2722 0.152895 14.2042 0.105698 14.1224C0.0585004 14.0405 0.0336672 13.9477 0.0336914 13.8532C0.0337157 13.7587 0.0585965 13.6659 0.105836 13.5841C1.13099 11.8118 2.71079 10.541 4.55444 9.93852C3.64249 9.39563 2.93395 8.56838 2.53765 7.58383C2.14135 6.59928 2.07919 5.51186 2.36073 4.48856C2.64226 3.46526 3.25192 2.56267 4.09607 1.9194C4.94023 1.27612 5.9722 0.927734 7.03352 0.927734C8.09484 0.927734 9.12682 1.27612 9.97098 1.9194C10.8151 2.56267 11.4248 3.46526 11.7063 4.48856C11.9879 5.51186 11.9257 6.59928 11.5294 7.58383C11.1331 8.56838 10.4246 9.39563 9.5126 9.93852C11.3563 10.541 12.9361 11.8118 13.9612 13.5841C14.0086 13.6659 14.0336 13.7587 14.0337 13.8533C14.0338 13.9478 14.009 14.0407 13.9619 14.1226Z" fill="#2C2D33"/>
</svg>
