<svg width="45" height="44" viewBox="0 0 45 44" fill="none" xmlns="http://www.w3.org/2000/svg">
<g id="Frame">
<path id="Vector" d="M29.0312 22C29.0312 22.2735 28.9226 22.5358 28.7292 22.7292C28.5358 22.9226 28.2735 23.0312 28 23.0312H17C16.7265 23.0312 16.4642 22.9226 16.2708 22.7292C16.0774 22.5358 15.9688 22.2735 15.9688 22C15.9688 21.7265 16.0774 21.4642 16.2708 21.2708C16.4642 21.0774 16.7265 20.9688 17 20.9688H28C28.2735 20.9688 28.5358 21.0774 28.7292 21.2708C28.9226 21.4642 29.0312 21.7265 29.0312 22ZM28 26.4688H17C16.7265 26.4688 16.4642 26.5774 16.2708 26.7708C16.0774 26.9642 15.9688 27.2265 15.9688 27.5C15.9688 27.7735 16.0774 28.0358 16.2708 28.2292C16.4642 28.4226 16.7265 28.5312 17 28.5312H28C28.2735 28.5312 28.5358 28.4226 28.7292 28.2292C28.9226 28.0358 29.0312 27.7735 29.0312 27.5C29.0312 27.2265 28.9226 26.9642 28.7292 26.7708C28.5358 26.5774 28.2735 26.4688 28 26.4688ZM37.2812 8.25V34.375C37.2812 35.7425 36.738 37.054 35.771 38.021C34.804 38.988 33.4925 39.5312 32.125 39.5312H12.875C11.5075 39.5312 10.196 38.988 9.22898 38.021C8.262 37.054 7.71875 35.7425 7.71875 34.375V8.25C7.71875 7.61182 7.97227 6.99978 8.42352 6.54852C8.87478 6.09727 9.48682 5.84375 10.125 5.84375H13.2188V4.125C13.2188 3.8515 13.3274 3.58919 13.5208 3.3958C13.7142 3.2024 13.9765 3.09375 14.25 3.09375C14.5235 3.09375 14.7858 3.2024 14.9792 3.3958C15.1726 3.58919 15.2812 3.8515 15.2812 4.125V5.84375H21.4688V4.125C21.4688 3.8515 21.5774 3.58919 21.7708 3.3958C21.9642 3.2024 22.2265 3.09375 22.5 3.09375C22.7735 3.09375 23.0358 3.2024 23.2292 3.3958C23.4226 3.58919 23.5312 3.8515 23.5312 4.125V5.84375H29.7188V4.125C29.7188 3.8515 29.8274 3.58919 30.0208 3.3958C30.2142 3.2024 30.4765 3.09375 30.75 3.09375C31.0235 3.09375 31.2858 3.2024 31.4792 3.3958C31.6726 3.58919 31.7812 3.8515 31.7812 4.125V5.84375H34.875C35.5132 5.84375 36.1252 6.09727 36.5765 6.54852C37.0277 6.99978 37.2812 7.61182 37.2812 8.25ZM35.2188 8.25C35.2188 8.15883 35.1825 8.0714 35.1181 8.00693C35.0536 7.94247 34.9662 7.90625 34.875 7.90625H31.7812V9.625C31.7812 9.8985 31.6726 10.1608 31.4792 10.3542C31.2858 10.5476 31.0235 10.6562 30.75 10.6562C30.4765 10.6562 30.2142 10.5476 30.0208 10.3542C29.8274 10.1608 29.7188 9.8985 29.7188 9.625V7.90625H23.5312V9.625C23.5312 9.8985 23.4226 10.1608 23.2292 10.3542C23.0358 10.5476 22.7735 10.6562 22.5 10.6562C22.2265 10.6562 21.9642 10.5476 21.7708 10.3542C21.5774 10.1608 21.4688 9.8985 21.4688 9.625V7.90625H15.2812V9.625C15.2812 9.8985 15.1726 10.1608 14.9792 10.3542C14.7858 10.5476 14.5235 10.6562 14.25 10.6562C13.9765 10.6562 13.7142 10.5476 13.5208 10.3542C13.3274 10.1608 13.2188 9.8985 13.2188 9.625V7.90625H10.125C10.0338 7.90625 9.9464 7.94247 9.88193 8.00693C9.81747 8.0714 9.78125 8.15883 9.78125 8.25V34.375C9.78125 35.1955 10.1072 35.9824 10.6874 36.5626C11.2676 37.1428 12.0545 37.4688 12.875 37.4688H32.125C32.9455 37.4688 33.7324 37.1428 34.3126 36.5626C34.8928 35.9824 35.2188 35.1955 35.2188 34.375V8.25Z" fill="url(#paint0_linear_97_1958)"/>
</g>
<defs>
<linearGradient id="paint0_linear_97_1958" x1="29.4743" y1="8.55939" x2="10.6027" y2="9.12914" gradientUnits="userSpaceOnUse">
<stop stop-color="#B5992A"/>
<stop offset="1" stop-color="#FFE580"/>
</linearGradient>
</defs>
</svg>
