<svg width="45" height="44" viewBox="0 0 45 44" fill="none" xmlns="http://www.w3.org/2000/svg">
<g id="Frame">
<path id="Vector" d="M15.9687 16.5C15.9687 16.2265 16.0774 15.9642 16.2708 15.7708C16.4642 15.5774 16.7265 15.4687 17 15.4687H28C28.2735 15.4687 28.5358 15.5774 28.7292 15.7708C28.9226 15.9642 29.0312 16.2265 29.0312 16.5C29.0312 16.7735 28.9226 17.0358 28.7292 17.2292C28.5358 17.4226 28.2735 17.5312 28 17.5312H17C16.7265 17.5312 16.4642 17.4226 16.2708 17.2292C16.0774 17.0358 15.9687 16.7735 15.9687 16.5ZM17 23.0312H28C28.2735 23.0312 28.5358 22.9226 28.7292 22.7292C28.9226 22.5358 29.0312 22.2735 29.0312 22C29.0312 21.7265 28.9226 21.4642 28.7292 21.2708C28.5358 21.0774 28.2735 20.9687 28 20.9687H17C16.7265 20.9687 16.4642 21.0774 16.2708 21.2708C16.0774 21.4642 15.9687 21.7265 15.9687 22C15.9687 22.2735 16.0774 22.5358 16.2708 22.7292C16.4642 22.9226 16.7265 23.0312 17 23.0312ZM22.5 26.4687H17C16.7265 26.4687 16.4642 26.5774 16.2708 26.7708C16.0774 26.9642 15.9687 27.2265 15.9687 27.5C15.9687 27.7735 16.0774 28.0358 16.2708 28.2292C16.4642 28.4226 16.7265 28.5312 17 28.5312H22.5C22.7735 28.5312 23.0358 28.4226 23.2292 28.2292C23.4226 28.0358 23.5312 27.7735 23.5312 27.5C23.5312 27.2265 23.4226 26.9642 23.2292 26.7708C23.0358 26.5774 22.7735 26.4687 22.5 26.4687ZM38.6562 8.25V26.9311C38.6568 27.2472 38.5949 27.5603 38.4739 27.8523C38.353 28.1443 38.1755 28.4095 37.9516 28.6327L29.1327 37.4516C28.9095 37.6755 28.6443 37.853 28.3523 37.9739C28.0603 38.0949 27.7472 38.1568 27.4311 38.1562H8.75C8.11182 38.1562 7.49978 37.9027 7.04852 37.4515C6.59727 37.0002 6.34375 36.3882 6.34375 35.75V8.25C6.34375 7.61182 6.59727 6.99978 7.04852 6.54852C7.49978 6.09727 8.11182 5.84375 8.75 5.84375H36.25C36.8882 5.84375 37.5002 6.09727 37.9515 6.54852C38.4027 6.99978 38.6562 7.61182 38.6562 8.25ZM8.75 36.0937H26.9687V27.5C26.9687 27.2265 27.0774 26.9642 27.2708 26.7708C27.4642 26.5774 27.7265 26.4687 28 26.4687H36.5937V8.25C36.5937 8.15883 36.5575 8.0714 36.4931 8.00693C36.4286 7.94247 36.3412 7.90625 36.25 7.90625H8.75C8.65883 7.90625 8.5714 7.94247 8.50693 8.00693C8.44247 8.0714 8.40625 8.15883 8.40625 8.25V35.75C8.40625 35.8412 8.44247 35.9286 8.50693 35.9931C8.5714 36.0575 8.65883 36.0937 8.75 36.0937ZM35.1362 28.5312H29.0312V34.6362L35.1362 28.5312Z" fill="url(#paint0_linear_97_1961)"/>
</g>
<defs>
<linearGradient id="paint0_linear_97_1961" x1="30.123" y1="10.6906" x2="9.50568" y2="11.4579" gradientUnits="userSpaceOnUse">
<stop stop-color="#B5992A"/>
<stop offset="1" stop-color="#FFE580"/>
</linearGradient>
</defs>
</svg>
