<svg width="26" height="25" viewBox="0 0 26 25" fill="none" xmlns="http://www.w3.org/2000/svg">
<path d="M7.87259 8.24468C7.87259 8.03307 7.95665 7.83013 8.10628 7.6805C8.25591 7.53087 8.45885 7.44681 8.67046 7.44681H17.1811C17.3927 7.44681 17.5956 7.53087 17.7453 7.6805C17.8949 7.83013 17.979 8.03307 17.979 8.24468C17.979 8.45629 17.8949 8.65923 17.7453 8.80886C17.5956 8.95849 17.3927 9.04255 17.1811 9.04255H8.67046C8.45885 9.04255 8.25591 8.95849 8.10628 8.80886C7.95665 8.65923 7.87259 8.45629 7.87259 8.24468ZM8.67046 13.2979H17.1811C17.3927 13.2979 17.5956 13.2138 17.7453 13.0642C17.8949 12.9145 17.979 12.7116 17.979 12.5C17.979 12.2884 17.8949 12.0854 17.7453 11.9358C17.5956 11.7862 17.3927 11.7021 17.1811 11.7021H8.67046C8.45885 11.7021 8.25591 11.7862 8.10628 11.9358C7.95665 12.0854 7.87259 12.2884 7.87259 12.5C7.87259 12.7116 7.95665 12.9145 8.10628 13.0642C8.25591 13.2138 8.45885 13.2979 8.67046 13.2979ZM12.9258 15.9574H8.67046C8.45885 15.9574 8.25591 16.0415 8.10628 16.1911C7.95665 16.3408 7.87259 16.5437 7.87259 16.7553C7.87259 16.9669 7.95665 17.1699 8.10628 17.3195C8.25591 17.4691 8.45885 17.5532 8.67046 17.5532H12.9258C13.1374 17.5532 13.3403 17.4691 13.49 17.3195C13.6396 17.1699 13.7237 16.9669 13.7237 16.7553C13.7237 16.5437 13.6396 16.3408 13.49 16.1911C13.3403 16.0415 13.1374 15.9574 12.9258 15.9574ZM25.4258 1.8617V16.3152C25.4262 16.5597 25.3783 16.8019 25.2847 17.0279C25.1911 17.2538 25.0538 17.459 24.8806 17.6316L18.0574 24.4548C17.8848 24.628 17.6796 24.7654 17.4537 24.8589C17.2277 24.9525 16.9855 25.0005 16.7409 25H2.28748C1.79373 25 1.3202 24.8039 0.971061 24.4547C0.621924 24.1056 0.425781 23.632 0.425781 23.1383V1.8617C0.425781 1.36795 0.621924 0.894417 0.971061 0.54528C1.3202 0.196143 1.79373 0 2.28748 0H23.5641C24.0578 0 24.5314 0.196143 24.8805 0.54528C25.2296 0.894417 25.4258 1.36795 25.4258 1.8617ZM2.28748 23.4043H16.3832V16.7553C16.3832 16.5437 16.4673 16.3408 16.6169 16.1911C16.7665 16.0415 16.9695 15.9574 17.1811 15.9574H23.83V1.8617C23.83 1.79117 23.802 1.72352 23.7521 1.67364C23.7023 1.62376 23.6346 1.59574 23.5641 1.59574H2.28748C2.21695 1.59574 2.1493 1.62376 2.09942 1.67364C2.04955 1.72352 2.02153 1.79117 2.02153 1.8617V23.1383C2.02153 23.2088 2.04955 23.2765 2.09942 23.3264C2.1493 23.3762 2.21695 23.4043 2.28748 23.4043ZM22.7024 17.5532H17.979V22.2766L22.7024 17.5532Z" fill="#BA9E2E"/>
</svg>
