<svg width="44" height="44" viewBox="0 0 44 44" fill="none" xmlns="http://www.w3.org/2000/svg">
<g id="Frame" clip-path="url(#clip0_27_121)">
<path id="Vector" d="M37.125 6.875H28.875C28.1156 6.875 27.5 7.49061 27.5 8.25V16.5C27.5 17.2594 28.1156 17.875 28.875 17.875H37.125C37.8844 17.875 38.5 17.2594 38.5 16.5V8.25C38.5 7.49061 37.8844 6.875 37.125 6.875Z" stroke="url(#paint0_linear_27_121)" stroke-width="2" stroke-linecap="round" stroke-linejoin="round"/>
<path id="Vector_2" d="M37.125 26.125H28.875C28.1156 26.125 27.5 26.7406 27.5 27.5V35.75C27.5 36.5094 28.1156 37.125 28.875 37.125H37.125C37.8844 37.125 38.5 36.5094 38.5 35.75V27.5C38.5 26.7406 37.8844 26.125 37.125 26.125Z" stroke="url(#paint1_linear_27_121)" stroke-width="2" stroke-linecap="round" stroke-linejoin="round"/>
<path id="Vector_3" d="M12.375 22H20.625" stroke="url(#paint2_linear_27_121)" stroke-width="2" stroke-linecap="round" stroke-linejoin="round"/>
<path id="Vector_4" d="M27.5 31.625H24.75C23.656 31.625 22.6068 31.1904 21.8332 30.4168C21.0596 29.6432 20.625 28.594 20.625 27.5V16.5C20.625 15.406 21.0596 14.3568 21.8332 13.5832C22.6068 12.8096 23.656 12.375 24.75 12.375H27.5" stroke="url(#paint3_linear_27_121)" stroke-width="2" stroke-linecap="round" stroke-linejoin="round"/>
<path id="Vector_5" d="M11 17.875H5.5C4.74061 17.875 4.125 18.4906 4.125 19.25V24.75C4.125 25.5094 4.74061 26.125 5.5 26.125H11C11.7594 26.125 12.375 25.5094 12.375 24.75V19.25C12.375 18.4906 11.7594 17.875 11 17.875Z" stroke="url(#paint4_linear_27_121)" stroke-width="2" stroke-linecap="round" stroke-linejoin="round"/>
</g>
<defs>
<linearGradient id="paint0_linear_27_121" x1="35.5951" y1="8.52501" x2="28.5764" y2="8.78618" gradientUnits="userSpaceOnUse">
<stop stop-color="#B5992A"/>
<stop offset="1" stop-color="#FFE580"/>
</linearGradient>
<linearGradient id="paint1_linear_27_121" x1="35.5951" y1="27.775" x2="28.5764" y2="28.0362" gradientUnits="userSpaceOnUse">
<stop stop-color="#B5992A"/>
<stop offset="1" stop-color="#FFE580"/>
</linearGradient>
<linearGradient id="paint2_linear_27_121" x1="18.4463" y1="22.15" x2="13.629" y2="23.6289" gradientUnits="userSpaceOnUse">
<stop stop-color="#B5992A"/>
<stop offset="1" stop-color="#FFE580"/>
</linearGradient>
<linearGradient id="paint3_linear_27_121" x1="25.6844" y1="15.2625" x2="21.2925" y2="15.3209" gradientUnits="userSpaceOnUse">
<stop stop-color="#B5992A"/>
<stop offset="1" stop-color="#FFE580"/>
</linearGradient>
<linearGradient id="paint4_linear_27_121" x1="10.1963" y1="19.1125" x2="4.9323" y2="19.3084" gradientUnits="userSpaceOnUse">
<stop stop-color="#B5992A"/>
<stop offset="1" stop-color="#FFE580"/>
</linearGradient>
<clipPath id="clip0_27_121">
<rect width="44" height="44" fill="white"/>
</clipPath>
</defs>
</svg>
